<svg aria-hidden="true" style="position: absolute; width: 0; height: 0; overflow: hidden;" version="1.1" xmlns="http://www.w3.org/2000/svg" xmlns:xlink="http://www.w3.org/1999/xlink">
<defs>
<symbol id="arrow-left-icon" viewBox="0 0 16 32">
<path d="M15.468 0.467c-0.287-0.3-0.668-0.468-1.065-0.468s-0.777 0.167-1.065 0.468l-12.455 13.222c-0.279 0.291-0.501 0.642-0.652 1.031s-0.23 0.807-0.23 1.231 0.078 0.842 0.23 1.231c0.152 0.389 0.374 0.74 0.652 1.031l12.545 13.32c0.582 0.616 1.524 0.624 2.115 0.016 0.143-0.145 0.257-0.32 0.336-0.516s0.12-0.407 0.121-0.621c0.001-0.214-0.037-0.426-0.113-0.622s-0.188-0.374-0.329-0.521l-11.481-12.187c-0.14-0.146-0.251-0.321-0.327-0.516s-0.115-0.404-0.115-0.616c0-0.212 0.039-0.421 0.115-0.616s0.187-0.37 0.327-0.516l11.389-12.091c0.139-0.146 0.251-0.321 0.326-0.515s0.115-0.404 0.115-0.615c0-0.212-0.039-0.421-0.115-0.615s-0.186-0.37-0.325-0.515z"></path>
</symbol>
<symbol id="arrow-right-icon" viewBox="0 0 16 32">
<path d="M0.532 0.467c0.287-0.3 0.668-0.468 1.065-0.468s0.777 0.167 1.065 0.468l12.455 13.222c0.279 0.291 0.501 0.642 0.653 1.031s0.23 0.807 0.23 1.231-0.078 0.842-0.23 1.231c-0.152 0.389-0.374 0.74-0.653 1.031l-12.545 13.32c-0.582 0.616-1.524 0.624-2.115 0.016-0.143-0.145-0.257-0.32-0.336-0.516s-0.12-0.407-0.121-0.621c-0.001-0.214 0.037-0.426 0.113-0.622s0.188-0.374 0.329-0.521l11.481-12.187c0.139-0.146 0.251-0.321 0.327-0.516s0.115-0.404 0.115-0.616c0-0.212-0.039-0.421-0.115-0.616s-0.187-0.37-0.327-0.516l-11.389-12.091c-0.139-0.146-0.251-0.321-0.326-0.515s-0.115-0.404-0.115-0.615c0-0.212 0.039-0.421 0.115-0.615s0.186-0.37 0.325-0.515z"></path>
</symbol>
<symbol id="author-vector" viewBox="0 0 63 32">
<path d="M1.141 14.149c-0.119 0.178-0.223 0.393-0.283 0.61-0.187 0.635-0.279 1.295-0.139 1.944 0.226 1.064 0.551 2.109 1.115 3.055 0.206 0.343 0.428 0.723 0.729 0.985 0.201 0.174 0.434 0.271 0.616 0.452 0.29 0.287 0.559 0.626 0.85 0.913s0.617 0.559 0.937 0.813c1.159 0.935 2.466 1.659 3.806 2.305 0.688 0.316 1.369 0.613 2.067 0.902 0.355 0.132 0.691 0.271 1.046 0.403 0.155 0.064 0.311 0.129 0.487 0.141 0.070 0.014 0.133 0.009 0.21 0.042 0.399 0.135 0.802 0.332 1.209 0.486 0.787 0.296 1.567 0.573 2.357 0.825 0.399 0.135 0.79 0.252 1.189 0.387 0.174 0.057 0.303 0.11 0.448 0.201 0.196 0.112 0.451 0.156 0.669 0.216 0.469 0.149 0.949 0.272 1.418 0.421 0.436 0.12 0.853 0.247 1.288 0.367 0.923 0.261 1.85 0.585 2.784 0.82 0.768 0.197 1.538 0.349 2.301 0.484 0.395 0.073 0.782 0.127 1.168 0.181 0.088 0.006 0.151 0.002 0.239 0.008 0.32-0.004 0.66 0.091 0.995 0.124 1.021 0.135 2.037 0.207 3.075 0.228 1.524 0.055 3.072 0.015 4.59-0.099 0.768-0.061 1.536-0.121 2.297-0.201 0.386-0.052 0.761-0.079 1.146-0.131 0.492-0.054 0.962-0.162 1.447-0.235 1.024-0.167 2.026-0.389 3.038-0.636 0.271-0.070 0.561-0.146 0.84-0.198 1.302-0.325 2.615-0.675 3.781-1.329 0.259-0.15 0.496-0.355 0.771-0.469 0.092-0.038 0.172-0.050 0.264-0.088 0.212-0.109 0.412-0.299 0.594-0.482 0.371-0.347 0.701-0.741 0.972-1.174 0.368-0.56 0.644-1.189 0.824-1.842 0.077-0.332 0.154-0.664 0.179-1.018 0.030-0.291-0.055-0.599-0.077-0.911-0.158-2.143-1.471-3.915-2.985-5.346-0.424-0.403-0.877-0.773-1.392-1.032-0.163-0.083-0.286-0.225-0.449-0.307-0.315-0.191-0.688-0.316-1.067-0.351 0.235-0.054 0.488-0.116 0.723-0.171 0.191-0.057 0.322-0.155 0.505-0.23 0.491-0.16 0.956-0.332 1.432-0.529 0.348-0.144 0.677-0.28 1.017-0.443 0.304-0.147 0.61-0.338 0.922-0.467 0.092-0.038 0.191-0.057 0.275-0.114 0.278-0.158 0.529-0.326 0.8-0.503 0.529-0.326 1.070-0.679 1.599-1.005 0.624-0.409 1.267-0.825 1.835-1.317 0.055-0.023 0.11-0.046 0.157-0.086 1.716-1.396 3.119-3.135 4.103-5.108 0.026 0.011 0.052 0.021 0.078 0.032 0.112-0.196 0.197-0.403 0.276-0.629 0 0 0.318 0.147 0.344 0.158 0.078 0.032 0.158 0.020 0.228 0.034 0.273 0.037 0.557 0.155 0.819 0.218 0.018-0.008 0.026 0.011 0.044 0.003 0.085 0.050 0.189 0.093 0.292 0.136 0.222 0.122 0.88 0.107 0.828-0.279-0.181-1.576-0.541-3.121-1.093-4.608-0.111-0.319-0.632-0.232-0.829-0.086-0.737 0.498-1.452 1.051-2.125 1.652-0.237 0.205-0.466 0.429-0.695 0.652-0.124 0.116-0.247 0.231-0.371 0.347-0.029 0.033-0.309 0.342-0.342 0.313-0.029 0.033-0.076 0.075-0.080 0.119-0.035 0.122 0.109 0.212 0.213 0.255 0.207 0.086 0.422 0.19 0.647 0.268 0.174 0.057 0.376 0.080 0.536 0.207 0.119 0.080 0.245 0.177 0.374 0.231 0.018-0.008 0.026 0.011 0.044 0.003-0.874 1.927-2.379 3.472-3.844 4.957-0.026-0.011-0.052-0.021-0.078-0.032-1.176 1.044-2.487 1.866-3.921 2.545-0.68 0.325-1.376 0.613-2.064 0.919-0.293 0.121-0.654 0.335-0.978 0.383-0.367 0.045-0.708 0.207-1.063 0.333-0.455 0.145-0.927 0.298-1.389 0.425-0.209 0.065-0.425 0.112-0.653 0.184-0.117 0.027-0.217 0.047-0.326 0.092 0 0-0.191 0.057-0.217 0.047s-0.052-0.021-0.078-0.032c-0.313 0.022-0.633 0.026-0.945 0.048-0.276 0.007-0.498-0.115-0.739-0.23-0.67-0.323-1.365-0.657-2.053-0.972-1.376-0.631-2.755-1.218-4.178-1.701-0.373-0.124-0.746-0.249-1.112-0.354-0.174-0.057-0.373-0.124-0.55-0.137-0.133-0.009-0.239-0.008-0.379-0.036-1.48-0.416-2.995-0.347-4.494-0.134-0.566 0.084-1.142 0.194-1.601 0.534-0.255 0.213-0.454 0.509-0.512 0.834-0.020 0.159-0.022 0.309 0.020 0.463 0.030 0.073 0.053 0.128 0.102 0.194 0.102 0.194 0.148 0.41 0.258 0.622 0.056 0.084 0.105 0.15 0.172 0.208 0.167 0.145 0.316 0.298 0.483 0.443 0.468 0.406 1.064 0.653 1.673 0.83 2.079 0.619 4.1 1.411 6.291 1.576 1.476 0.096 2.958-0.002 4.428-0.075 0.757-0.035 1.498-0.213 2.256-0.248 0.614-0.018 1.182-0.253 1.805-0.147 0.457 0.068 0.934 0.235 1.374 0.418 0.215 0.104 0.429 0.208 0.651 0.331 0.486 0.292 0.957 0.654 1.381 1.058 0.208 0.192 0.424 0.403 0.603 0.629 0.105 0.15 0.181 0.333 0.285 0.482 0.348 0.478 0.768 0.819 1.057 1.363 0.282 0.526 0.473 1.091 0.546 1.682 0.077 0.547-0.039 1.045-0.051 1.586-0.005 0.195 0.019 0.357-0.030 0.549-0.336 1.104-1.362 2.043-2.286 2.662-1.873 1.226-4.143 1.801-6.297 2.242-0.415 0.086-0.855 0.161-1.278 0.229-0.467 0.064-0.922 0.103-1.389 0.168-0.448 0.057-0.878 0.106-1.326 0.163-0.511 0.061-1.007 0.053-1.5 0.106-0.922 0.103-1.834 0.18-2.757 0.177-0.39-0.010-0.798-0.012-1.189-0.023-0.788-0.038-1.575-0.077-2.371-0.133-1.58-0.139-3.146-0.349-4.698-0.628s-3.098-0.647-4.63-1.085c-0.417-0.127-0.827-0.236-1.244-0.364-0.816-0.262-1.671-0.359-2.49-0.577-0.391-0.117-0.801-0.226-1.192-0.343-0.783-0.233-1.573-0.485-2.353-0.763-1.552-0.537-3.097-1.162-4.595-1.828-0.318-0.147-0.636-0.294-0.936-0.449-1.391-0.668-2.769-1.405-3.998-2.354-0.605-0.478-1.182-0.99-1.674-1.558-0.254-0.302-0.479-0.638-0.714-0.948-0.153-0.215-0.318-0.404-0.434-0.635-0.464-0.966-0.562-2.705 0.337-3.484 1.031-0.877 2.324-1.326 3.611-1.688 0.227-0.073 0.459-0.083 0.678-0.174 0.055-0.023 0.092-0.038 0.128-0.053 0.136-0.035 0.271-0.069 0.425-0.112 0.018-0.008-0.217-0.318-0.225-0.336-0.108-0.105-0.245-0.177-0.382-0.249-0.207-0.086-0.443-0.138-0.682-0.146-0.026-0.011-0.044-0.003-0.088-0.006-0.239-0.008-0.466 0.064-0.694 0.137-0.381 0.115-0.755 0.248-1.121 0.4-1.028 0.211-2.086 0.606-2.682 1.496zM40.875 14.938c-0.349 0.037-0.71-0.006-1.082-0.024-0.133-0.009-0.335-0.033-0.445 0.013-0.313 0.022-0.643 0.052-0.956 0.074-0.32 0.004-0.64 0.008-0.96 0.011-0.239-0.008-0.518 0.043-0.751-0.053-0.052-0.021-0.085-0.050-0.129-0.054-0.122-0.035-0.283-0.011-0.408-0.002-0.302-0.004-0.585-0.015-0.887-0.019-0.593-0.033-1.175-0.093-1.754-0.196-0.922-0.155-1.819-0.405-2.683-0.733-0.355-0.132-0.717-0.282-1.050-0.466-0.222-0.122-0.43-0.315-0.61-0.541-0.138-0.179-0.439-0.44-0.203-0.645 0.16-0.131 0.388-0.203 0.571-0.279 1.315-0.501 2.763-0.629 4.149-0.388 0.465 0.086 0.944 0.209 1.395 0.366 0.225 0.078 0.44 0.182 0.673 0.279 0.215 0.104 0.458 0.175 0.684 0.253 0.417 0.127 0.824 0.281 1.23 0.434 0.743 0.293 1.486 0.585 2.208 0.93 0.37 0.168 0.721 0.345 1.073 0.521 0.163 0.083 0.407 0.153 0.522 0.277 0.213 0.255-0.523 0.238-0.586 0.242zM58.841 3.491c-0.026-0.011-0.148-0.046-0.181-0.075-0.056-0.084 0.367-0.409 0.443-0.484 0.313-0.28 0.608-0.552 0.928-0.813 0.084-0.056 0.824-0.599 0.827-0.643 0.073 0.227 0.138 0.436 0.21 0.663 0.065 0.209 0.156 0.429 0.177 0.634 0.042 0.412 0.234 0.825 0.357 1.224l0.103 0.3c0.030 0.073 0.102 0.194 0.088 0.264s-0.069 0.093-0.15 0.105c-0.088-0.006-0.174-0.057-0.251-0.089-0.181-0.075-0.355-0.132-0.518-0.215-0.155-0.064-0.303-0.11-0.44-0.182-0.207-0.086-0.388-0.161-0.595-0.247-0.344-0.158-0.681-0.297-0.999-0.444z"></path>
</symbol>
<symbol id="burger-icon" viewBox="0 0 38 32">
<path d="M1.569 3.137h34.51c0.416 0 0.815-0.165 1.109-0.459s0.459-0.693 0.459-1.109c0-0.416-0.165-0.815-0.459-1.109s-0.693-0.459-1.109-0.459h-34.51c-0.416 0-0.815 0.165-1.109 0.459s-0.459 0.693-0.459 1.109c0 0.416 0.165 0.815 0.459 1.109s0.693 0.459 1.109 0.459z"></path>
<path d="M1.569 11.922h21.961c0.416 0 0.815-0.165 1.109-0.459s0.459-0.693 0.459-1.109-0.165-0.815-0.459-1.109c-0.294-0.294-0.693-0.459-1.109-0.459h-21.961c-0.416 0-0.815 0.165-1.109 0.459s-0.459 0.693-0.459 1.109c0 0.416 0.165 0.815 0.459 1.109s0.693 0.459 1.109 0.459z"></path>
<path d="M36.078 17.569h-34.51c-0.416 0-0.815 0.165-1.109 0.459s-0.459 0.693-0.459 1.109c0 0.416 0.165 0.815 0.459 1.109s0.693 0.459 1.109 0.459h34.51c0.416 0 0.815-0.165 1.109-0.459s0.459-0.693 0.459-1.109c0-0.416-0.165-0.815-0.459-1.109s-0.693-0.459-1.109-0.459z"></path>
<path d="M23.529 26.353h-21.961c-0.416 0-0.815 0.165-1.109 0.459s-0.459 0.693-0.459 1.109c0 0.416 0.165 0.815 0.459 1.109s0.693 0.459 1.109 0.459h21.961c0.416 0 0.815-0.165 1.109-0.459s0.459-0.693 0.459-1.109c0-0.416-0.165-0.815-0.459-1.109s-0.693-0.459-1.109-0.459z"></path>
</symbol>
<symbol id="coments-icon" viewBox="0 0 32 32">
<path d="M31.139 24.082l-1.782-5.186c0.859-1.756 1.313-3.709 1.316-5.674 0.005-3.417-1.317-6.647-3.722-9.097s-5.612-3.829-9.028-3.883c-3.542-0.056-6.871 1.291-9.374 3.794-2.414 2.413-3.752 5.595-3.795 8.995-2.379 1.791-3.783 4.583-3.778 7.566 0.002 1.396 0.316 2.783 0.912 4.038l-1.228 3.572c-0.211 0.614-0.057 1.281 0.402 1.74 0.323 0.323 0.749 0.495 1.187 0.495 0.184 0 0.371-0.030 0.553-0.093l3.572-1.228c1.255 0.595 2.642 0.909 4.038 0.912h0.015c3.027-0 5.841-1.44 7.625-3.877 1.857-0.049 3.694-0.498 5.355-1.311l5.186 1.782c0.211 0.073 0.433 0.11 0.657 0.11 0.521 0 1.027-0.204 1.411-0.589 0.546-0.546 0.729-1.338 0.478-2.068zM10.426 28.208h-0.012c-1.235-0.002-2.462-0.306-3.547-0.881-0.11-0.058-0.232-0.093-0.356-0.103s-0.25 0.006-0.368 0.047l-3.663 1.259 1.259-3.663c0.041-0.118 0.057-0.243 0.047-0.368s-0.045-0.246-0.103-0.356c-0.574-1.085-0.879-2.312-0.881-3.548-0.003-1.987 0.77-3.871 2.122-5.281 0.442 2.692 1.724 5.172 3.713 7.125 1.974 1.939 4.455 3.173 7.132 3.577-1.414 1.393-3.319 2.192-5.342 2.192zM29.37 24.859c-0.052 0.052-0.113 0.066-0.183 0.042l-5.552-1.908c-0.118-0.040-0.243-0.056-0.368-0.047s-0.246 0.045-0.356 0.103c-1.585 0.839-3.377 1.284-5.181 1.286h-0.017c-6.045 0-11.037-4.91-11.133-10.953-0.048-3.043 1.109-5.904 3.26-8.054s5.011-3.308 8.054-3.26c6.049 0.096 10.962 5.098 10.953 11.15-0.003 1.804-0.448 3.595-1.286 5.181-0.058 0.11-0.093 0.232-0.103 0.356s0.006 0.25 0.047 0.368l1.908 5.552c0.024 0.070 0.010 0.131-0.042 0.183z"></path>
<path d="M23.153 8.361h-10.881c-0.504 0-0.913 0.409-0.913 0.913s0.409 0.913 0.913 0.913h10.881c0.504 0 0.913-0.409 0.913-0.913s-0.409-0.913-0.913-0.913zM23.153 12.117h-10.881c-0.504 0-0.913 0.409-0.913 0.913s0.409 0.913 0.913 0.913h10.881c0.504 0 0.913-0.409 0.913-0.913s-0.409-0.913-0.913-0.913zM18.965 15.872h-6.692c-0.504 0-0.913 0.409-0.913 0.913s0.409 0.913 0.913 0.913h6.692c0.504 0 0.913-0.409 0.913-0.913s-0.409-0.913-0.913-0.913z"></path>
</symbol>
<symbol id="coment-vector" viewBox="0 0 13 32">
<path d="M13.263 4.383l-0.004 0.021c-0.098 0.211-0.423 0.096-0.59-0.037-0.474-0.386-0.965-0.742-1.469-1.089-0.248-0.168-0.517-0.338-0.769-0.485-0.349-0.205-0.12 0.315-0.075 0.516 0.164 0.672 0.375 1.329 0.526 2.010 0.176 0.824 0.483 1.594 0.637 2.415 0.411 2.25 0.876 4.499 0.958 6.816 0.021 0.682 0.037 1.385 0.037 2.063 0.002 0.356-0.035 0.738-0.012 1.097 0.031 0.371 0.033 0.727-0.012 1.097-0.018 0.191-0.083 0.397-0.072 0.603 0.027 0.392-0.111 0.737-0.202 1.122-0.152 0.623-0.333 1.23-0.54 1.856-0.336 0.982-0.722 1.946-1.18 2.888-0.227 0.46-0.479 0.939-0.735 1.384-0.722 1.267-1.855 2.266-3.084 3.046-1.843 1.169-3.81 1.889-5.951 2.139-0.156 0.019-0.295 0.008-0.417-0.086 0.276-0.28 0.272-0.26 0.703-0.344 1.681-0.343 3.321-0.801 4.842-1.729 1.22-0.738 2.284-1.511 2.993-2.769 0.906-1.627 1.71-3.291 2.077-5.098 0.231-1.106 0.454-2.224 0.491-3.339 0.007-0.398 0.111-0.791 0.118-1.188 0.069-2.672-0.247-5.274-0.908-7.832-0.165-0.618-0.329-1.236-0.506-1.845-0.157-0.552-0.25-1.094-0.411-1.626-0.045-0.147-0.091-0.294-0.136-0.441-0.116-0.33-0.27-0.634-0.373-0.973-0.070-0.237-0.136-0.495-0.206-0.732-0.049-0.18-0.073-0.431-0.199-0.559-0.162 0.309-0.262 0.681-0.382 0.997-0.125 0.336-0.262 0.681-0.387 1.018-0.052 0.143-0.175 0.318-0.314 0.253-0.185-0.050-0.167-0.295-0.115-0.492 0.389-1.394 0.787-2.776 1.163-4.162 0.052-0.197 0.155-0.429 0.353-0.441 0.122-0.013 0.215 0.066 0.32 0.136 0.617 0.483 1.289 0.91 1.83 1.446 0.134 0.193 0.352 0.345 0.524 0.512 0.18 0.179 0.36 0.357 0.541 0.536 0.142 0.151 0.315 0.264 0.432 0.433 0.134 0.193 0.28 0.377 0.414 0.57 0.050 0.072 0.125 0.181 0.091 0.294z"></path>
</symbol>
<symbol id="dislike-icon" viewBox="0 0 32 32">
<path d="M1.608 9.822c-0.122-0.327-0.237-0.77-0.27-1.283-0.045-0.905 0.18-2.175 1.457-3.33-0.083-0.59-0.083-1.527 0.436-2.458 0.687-1.232 2.028-2.066 3.991-2.483 1.315-0.282 3.042-0.34 5.133-0.18 4.216-0.083 8.323 0.436 8.554 0.468l1.508 0.18c0.436-0.308 0.969-0.488 1.54-0.488h3.914c1.476 0 2.669 1.2 2.669 2.669v10.427c0 1.476-1.2 2.669-2.669 2.669h-3.914c-0.462 0-0.892-0.116-1.27-0.321-0.27 0.59-0.667 1.264-1.258 1.886-0.032 0.032-0.064 0.064-0.103 0.090-2.015 1.546-4.389 7.116-5.23 9.388 0.083 0.706 0.167 2.233-0.539 3.061-0.314 0.366-0.751 0.565-1.238 0.565-0.494 0-2.201-0.116-3.266-1.585-1.007-1.399-1.065-3.491-0.167-6.224 0.757-2.297 0.828-3.317 0.802-3.728-0.347 0.077-0.687 0.148-1.014 0.205h-0.006c-0.058 0.013-1.469 0.327-3.157 0.404-2.4 0.116-4.139-0.302-5.153-1.232-1.399-1.277-1.232-2.907-0.815-3.946-0.359-0.468-0.796-1.232-0.834-2.207-0.026-0.886 0.269-1.739 0.898-2.547zM23.958 14.288h3.914c0.52 0 0.937-0.424 0.937-0.937v-10.427c0-0.52-0.423-0.937-0.937-0.937h-3.914c-0.52 0-0.937 0.424-0.937 0.937v10.427c0 0.52 0.417 0.937 0.937 0.937zM3.315 14.911c0 0.006-0.225 0.359-0.302 0.841-0.096 0.597 0.071 1.091 0.52 1.502 1.226 1.116 4.755 0.86 6.725 0.424 0.026-0.006 0.051-0.013 0.083-0.019 0.353-0.064 0.732-0.141 1.117-0.225 0.411-0.148 0.975-0.128 1.399 0.25 0.853 0.757 0.757 2.477-0.314 5.743-0.706 2.143-0.732 3.76-0.077 4.665 0.552 0.764 1.463 0.86 1.81 0.866 0.154-0.257 0.199-1.136 0.083-1.861-0.019-0.141-0.006-0.289 0.039-0.43 0.122-0.327 2.939-8.040 5.82-10.325 0.751-0.815 1.078-1.771 1.194-2.201-0.077-0.25-0.122-0.52-0.122-0.796v-10.421c0-0.192 0.019-0.385 0.058-0.565l-0.648-0.077h-0.006c-0.039-0.006-4.216-0.545-8.342-0.456h-0.090c-1.944-0.154-3.516-0.109-4.678 0.141-1.437 0.308-2.387 0.847-2.823 1.611-0.456 0.789-0.205 1.604-0.186 1.681 0.135 0.359 0.013 0.751-0.295 0.982-1.899 1.425-1.027 3.086-0.911 3.292 0.212 0.334 0.16 0.757-0.115 1.046-0.552 0.578-0.821 1.155-0.802 1.72 0.026 0.841 0.674 1.469 0.719 1.508 0.321 0.276 0.379 0.744 0.148 1.104z"></path>
</symbol>
<symbol id="email-icon" viewBox="0 0 32 32">
<path d="M28.633 6.667h-26.6c-0.385 0-0.7 0.333-0.7 0.741v18.518c0 0.407 0.315 0.741 0.7 0.741h26.6c0.385 0 0.7-0.333 0.7-0.741v-18.518c0-0.407-0.315-0.741-0.7-0.741zM26.953 8.148l-11.62 12.296-11.62-12.296h23.24zM2.733 9.185l7.070 7.481-7.070 7.481v-14.963zM3.748 25.185l7.035-7.444 4.060 4.296c0.28 0.296 0.7 0.296 0.98 0l4.060-4.296 7.035 7.444h-23.17zM27.933 24.148l-7.070-7.481 7.070-7.481v14.963z"></path>
</symbol>
<symbol id="filter-icon" viewBox="0 0 47 32">
<path stroke-linejoin="round" stroke-linecap="round" stroke-miterlimit="4" stroke-width="3.4752" d="M2.715 7.014h5.908M44.389 7.014h-14.69"></path>
<path stroke-linejoin="miter" stroke-linecap="round" stroke-miterlimit="4" stroke-width="3.4752" d="M2.715 24.47h15.169M44.389 24.47h-5.588"></path>
<path stroke-linejoin="miter" stroke-linecap="butt" stroke-miterlimit="4" stroke-width="3.4752" d="M24.406 7.125c0 2.757-2.275 4.991-5.081 4.991s-5.081-2.235-5.081-4.991c0-2.757 2.275-4.991 5.081-4.991s5.081 2.235 5.081 4.991z"></path>
<path stroke-linejoin="miter" stroke-linecap="butt" stroke-miterlimit="4" stroke-width="3.4752" d="M33.182 24.47c0 2.757-2.275 4.991-5.081 4.991s-5.081-2.235-5.081-4.991c0-2.757 2.275-4.991 5.081-4.991s5.081 2.235 5.081 4.991z"></path>
</symbol>
<symbol id="galery-vector" viewBox="0 0 28 32">
<path d="M20.944 31.6l-0.018-0.018c-0.142-0.24 0.191-0.482 0.437-0.558 0.702-0.207 1.387-0.45 2.071-0.712 0.333-0.131 0.684-0.281 1-0.43 0.439-0.206-0.23-0.333-0.459-0.424-0.775-0.293-1.566-0.531-2.341-0.843-0.933-0.385-1.901-0.604-2.816-1.008-2.5-1.12-5.035-2.185-7.379-3.676-0.687-0.442-1.392-0.902-2.062-1.363-0.352-0.239-0.705-0.535-1.075-0.755-0.388-0.221-0.74-0.46-1.075-0.755-0.176-0.148-0.335-0.351-0.547-0.48-0.405-0.239-0.653-0.609-0.971-0.959-0.512-0.572-0.989-1.163-1.466-1.791-0.742-0.997-1.432-2.032-2.051-3.123-0.301-0.536-0.602-1.109-0.868-1.664-0.762-1.572-0.98-3.368-0.917-5.109 0.095-2.613 0.718-5.042 1.922-7.325 0.087-0.167 0.192-0.297 0.368-0.353 0.090 0.463 0.072 0.444-0.137 0.927-0.801 1.893-1.461 3.822-1.576 5.953-0.099 1.705-0.057 3.279 0.705 4.832 0.992 1.997 2.090 3.919 3.625 5.506 0.935 0.978 1.888 1.956 2.964 2.749 0.388 0.276 0.706 0.646 1.093 0.922 2.591 1.879 5.374 3.332 8.349 4.413 0.722 0.256 1.443 0.513 2.165 0.751 0.651 0.22 1.25 0.495 1.883 0.697 0.176 0.055 0.352 0.11 0.528 0.165 0.405 0.11 0.809 0.164 1.214 0.292 0.282 0.092 0.581 0.201 0.862 0.293 0.211 0.073 0.475 0.22 0.686 0.183-0.195-0.37-0.495-0.721-0.725-1.053-0.247-0.351-0.495-0.721-0.742-1.072-0.106-0.148-0.195-0.388-0.037-0.482 0.175-0.149 0.404 0.035 0.563 0.22 1.113 1.329 2.208 2.659 3.32 3.97 0.159 0.185 0.318 0.443 0.196 0.648-0.070 0.13-0.21 0.168-0.351 0.224-0.895 0.281-1.773 0.655-2.668 0.826-0.281 0.001-0.58 0.113-0.861 0.17-0.299 0.057-0.597 0.114-0.896 0.17-0.246 0.038-0.474 0.132-0.72 0.133-0.281 0.001-0.562 0.021-0.844 0.022-0.105 0-0.264 0.001-0.352-0.11z"></path>
</symbol>
<symbol id="like-icon" viewBox="0 0 32 32">
<path d="M28.932 20.86c0.629-0.802 0.93-1.662 0.892-2.547-0.039-0.975-0.475-1.739-0.834-2.207 0.417-1.039 0.577-2.676-0.815-3.946-1.020-0.93-2.753-1.347-5.152-1.232-1.688 0.077-3.099 0.391-3.157 0.404h-0.006c-0.321 0.058-0.661 0.128-1.007 0.205-0.026-0.411 0.045-1.431 0.802-3.728 0.898-2.733 0.847-4.825-0.167-6.224-1.065-1.469-2.765-1.585-3.266-1.585-0.481 0-0.924 0.199-1.238 0.565-0.712 0.828-0.629 2.355-0.539 3.061-0.847 2.271-3.221 7.841-5.229 9.387-0.039 0.026-0.071 0.058-0.103 0.090-0.59 0.622-0.988 1.296-1.258 1.886-0.379-0.205-0.808-0.321-1.27-0.321h-3.914c-1.476 0-2.669 1.2-2.669 2.669v10.427c0 1.476 1.2 2.669 2.669 2.669h3.914c0.571 0 1.104-0.18 1.54-0.488l1.508 0.18c0.231 0.032 4.338 0.552 8.553 0.468 0.764 0.058 1.482 0.090 2.149 0.090 1.148 0 2.149-0.090 2.984-0.269 1.963-0.417 3.304-1.251 3.984-2.477 0.52-0.937 0.52-1.867 0.436-2.457 1.277-1.155 1.501-2.432 1.456-3.33-0.026-0.52-0.141-0.962-0.263-1.29zM2.669 28.701c-0.52 0-0.937-0.424-0.937-0.937v-10.433c0-0.52 0.423-0.937 0.937-0.937h3.914c0.52 0 0.937 0.424 0.937 0.937v10.427c0 0.52-0.423 0.937-0.937 0.937h-3.914v0.007zM27.289 20.109c-0.269 0.282-0.321 0.712-0.116 1.046 0 0.006 0.263 0.456 0.295 1.072 0.045 0.841-0.359 1.585-1.206 2.22-0.302 0.231-0.424 0.629-0.295 0.988 0 0.006 0.276 0.853-0.173 1.656-0.43 0.77-1.386 1.322-2.836 1.63-1.161 0.25-2.74 0.295-4.678 0.141h-0.090c-4.126 0.090-8.296-0.449-8.341-0.456h-0.006l-0.648-0.077c0.039-0.18 0.058-0.372 0.058-0.565v-10.433c0-0.276-0.045-0.545-0.122-0.796 0.116-0.43 0.436-1.386 1.193-2.201 2.881-2.284 5.698-9.99 5.82-10.324 0.051-0.135 0.064-0.282 0.039-0.43-0.109-0.719-0.071-1.598 0.083-1.861 0.34 0.006 1.258 0.103 1.809 0.866 0.654 0.905 0.629 2.522-0.077 4.665-1.078 3.266-1.168 4.986-0.314 5.743 0.423 0.379 0.988 0.398 1.399 0.25 0.391-0.090 0.764-0.167 1.116-0.225 0.026-0.006 0.058-0.013 0.083-0.019 1.97-0.43 5.499-0.693 6.724 0.424 1.039 0.95 0.301 2.207 0.218 2.342-0.237 0.359-0.167 0.828 0.154 1.117 0.007 0.006 0.68 0.642 0.712 1.495 0.026 0.571-0.244 1.155-0.802 1.732z"></path>
</symbol>
<symbol id="poetry-vector" viewBox="0 0 16 32">
<path d="M9.040 2.509c-1.346-0.602-2.919 0.314-4.050-1.159 0.385-0.132 0.631-0.242 0.845-0.252 2.607-0.17 5.261-0.347 7.876-0.47 0.428-0.019 1.066 0.072 1.28 0.349 0.4 0.535-0.078 0.969-0.499 1.322-1.32 1.14-2.632 2.327-3.971 3.494-0.517-0.948-0.517-0.948 1.388-3.184-5.374 0.963-8.37 6.146-6.323 11.112 0.49-0.22 0.954-0.461 1.444-0.681 1.432-0.608 2.868-0.761 4.393-0.235 1.093 0.379 1.879 1.069 2.053 2.262 0.155 1.22-0.503 2.017-1.48 2.625-2.079 1.331-4.402 1.050-6.116-0.763-0.206-0.231-0.451-0.408-0.786-0.69-2.002 2.371-3.187 5.046-3.064 8.088 0.16 4.712 3.933 6.368 7.253 6.302 0.409 0.008 0.821-0.105 1.483-0.161-0.685 0.777-1.433 0.895-2.16 0.985-2.837 0.373-5.941-1.293-7.231-3.865-0.8-1.645-1.087-3.37-0.786-5.164 0.449-2.63 1.467-5.015 3.27-6.996 0.183-0.196 0.339-0.412 0.561-0.662-0.796-2.339-1.265-4.73-0.357-7.193 0.924-2.37 3.018-3.608 4.98-5.064zM6.253 15.147c1.255 2.219 3.418 2.837 5.143 1.537 0.428-0.306 0.783-0.912 0.818-1.42 0.051-0.702-0.587-1.080-1.26-1.238-1.731-0.47-3.234 0.005-4.701 1.121z"></path>
</symbol>
<symbol id="icon-signature" viewBox="0 0 55 32">
<path fill="none" stroke-linejoin="miter" stroke-linecap="round" stroke-miterlimit="4" stroke-width="0.4627" stroke="#000" d="M5.060 25.476c-0.884 0.652-0.578 3.745 0.667 4.067 2.207 0.755 5.735-4.015 6.66-7.517 0.097-0.366 0.119-0.85 0.177-1.269 0.065-0.465 0.023-0.964 0.031-1.435 0.022-1.204 0.212-2.371 0.116-3.579-0.058-0.733-0.241-1.654-0.774-2.21-0.125-0.13-0.276-0.242-0.449-0.363-0.355-0.249-0.783-0.405-1.207-0.315-0.216 0.046-0.426 0.113-0.604 0.2-1.211 0.478-1.852 3.408-2.030 5.296-0.089 0.948 0.28 2.361 1.053 2.917 0.734 0.529 1.707 0.678 2.635 0.434 0.659-0.174 1.27-0.331 1.636-0.851 0.101-0.143 0.189-0.292 0.288-0.437 0.677-0.993 2.55-4.445 3.115-5.795 0.119-0.284 0.251-0.567 0.364-0.853 0.287-0.728 0.672-2.203 0.94-3.719 0.294-1.666-0.772-1.775-1.291-0.165l-0.926 2.871c-0.001 0.003-0.002 0.005-0.003 0.008-0.033 0.106-0.877 2.773-1.226 4.036-0.37 1.34-0.767 2.772-0.916 4.155-0.193 1.792-0.017 3.611 0.438 5.34 0.081 0.31 0.224 1.030 0.68 0.957 0.278-0.044 0.529-0.27 0.717-0.454 0.599-0.584 0.971-1.325 1.416-2.029 0.981-1.55 1.803-2.998 2.348-4.76 0.387-1.25 0.663-2.55 1.182-3.754 0.398-0.922 0.823-1.878 1.073-2.853 0.125-0.488 0.042-0.97-0.216-1.405-0.124-0.209-0.466-0.071-0.547 0.089-0.455 0.907-0.558 1.841-0.59 2.836-0.033 1.005 0.229 1.903 0.387 2.877 0.137 0.844 0.321 1.699 0.539 2.527 0.225 0.857 0.296 2.185 1.504 2.041 2.055-0.245 4.27-1.47 5.285-3.335 0.235-0.431-0.109 0.206 0.673-1.251 0.509-0.95 0.826-2.575 0.903-3.647 0.047-0.654-0.367-0.745-0.698-0.179v0c-0.564 0.967-0.897 2.103-0.948 3.225-0.032 0.704 0.119 1.656 0.591 2.218 0.183 0.218 0.46 0.499 0.814 0.685 0.258 0.135 0.567 0.142 0.837 0.033 0.181-0.073 0.335-0.178 0.475-0.356 0.375-0.477 0.591-0.957 0.821-1.53 0.468-1.165 0.546-2.453 1.040-3.622 0.015-0.037 0.322-0.868 0.386-0.848 0.21 0.065-0.071 0.869-0.101 0.978-0.048 0.177-0.558 2.291-0.061 2.264 0.221-0.012 0.798-0.756 0.901-0.925 0.255-0.417 0.458-0.955 0.55-1.446 0.065-0.346 0.119-0.648 0.22-0.985 0.075-0.251 0.046 0.134 0.023 0.206-0.245 0.766-0.296 2.034 0.169 2.734 0.658 0.991 1.924-0.591 2.31-1.036 0.643-0.742 1.229-1.559 1.72-2.41 0.49-0.847 0.99-1.699 1.392-2.588 0.42-0.927 0.851-1.938 0.957-2.974 0.064-0.622 0.151-1.265 0.1-1.889-0.041-0.508-0.322-0.66-0.621-0.088-0.466 0.893-0.654 1.965-0.879 2.935-0.414 1.786-1.041 3.481-1.534 5.242-0.718 2.567-0.741 5.226-1.178 7.836-0.13 0.779-0.329 1.534-0.592 2.278"></path>
<path fill="none" stroke-linejoin="miter" stroke-linecap="round" stroke-miterlimit="4" stroke-width="0.4627" stroke="#000" d="M52.374 6.098c-0.205 0.258-0.386 0.538-0.603 0.787-0.958 1.106-2.243 1.86-3.466 2.633-2.599 1.644-5.272 3.378-7.151 5.866-0.076 0.101-1.424 1.485-0.576 1.724 1.733 0.516 4.333-0.347 4.333-0.347"></path>
</symbol>
<symbol id="telegram-icon" viewBox="0 0 32 32">
<path d="M30.402 4.173c0.105 0.086 0.183 0.198 0.226 0.324s0.051 0.261 0.020 0.39l-5.265 22.545c-0.028 0.121-0.088 0.233-0.173 0.326s-0.194 0.162-0.316 0.203c-0.121 0.040-0.251 0.050-0.378 0.028s-0.245-0.075-0.344-0.154l-7.577-5.994-3.323 5.785c-0.072 0.126-0.182 0.228-0.314 0.294s-0.282 0.092-0.43 0.075c-0.148-0.017-0.287-0.075-0.401-0.168s-0.196-0.217-0.236-0.355l-2.882-9.755-7.072-1.367c-0.158-0.031-0.302-0.11-0.41-0.226s-0.175-0.263-0.19-0.418 0.022-0.311 0.105-0.445c0.084-0.134 0.21-0.238 0.359-0.297l27.83-10.909c0.127-0.050 0.267-0.065 0.402-0.044s0.263 0.078 0.368 0.164zM4.692 15.399l5.061 0.979c0.136 0.026 0.261 0.088 0.363 0.178s0.175 0.207 0.213 0.335l2.509 8.493 2.879-5.011c0.053-0.093 0.127-0.174 0.217-0.236s0.192-0.105 0.3-0.125c0.108-0.020 0.22-0.017 0.326 0.010s0.206 0.075 0.291 0.142l7.331 5.801 4.681-20.040-24.172 9.475z"></path>
<path d="M30.553 4.328c0.052 0.078 0.087 0.165 0.103 0.256s0.014 0.184-0.007 0.274c-0.021 0.090-0.061 0.175-0.117 0.25s-0.127 0.139-0.208 0.189l-19.862 11.929c-0.165 0.099-0.365 0.132-0.555 0.090s-0.356-0.153-0.46-0.311c-0.104-0.158-0.138-0.348-0.095-0.53s0.161-0.339 0.326-0.439l19.862-11.929c0.082-0.049 0.173-0.082 0.268-0.098s0.193-0.013 0.287 0.007c0.094 0.020 0.183 0.058 0.262 0.112s0.144 0.121 0.196 0.199z"></path>
<path d="M28.649 5.393c0.080 0.042 0.149 0.097 0.201 0.162s0.090 0.138 0.108 0.216c0.018 0.078 0.017 0.158-0.003 0.237s-0.058 0.154-0.113 0.221l-11.793 14.64c-0.055 0.068-0.124 0.126-0.205 0.173s-0.172 0.080-0.267 0.098c-0.095 0.018-0.193 0.021-0.288 0.008s-0.185-0.041-0.265-0.083c-0.080-0.042-0.148-0.097-0.201-0.162s-0.090-0.138-0.107-0.216c-0.018-0.078-0.017-0.158 0.003-0.237s0.058-0.154 0.113-0.221l11.793-14.64c0.055-0.068 0.124-0.126 0.205-0.173s0.172-0.080 0.267-0.098c0.095-0.018 0.193-0.021 0.288-0.008s0.185 0.041 0.265 0.083z"></path>
</symbol>

<symbol id="icon-about-author-icon" viewBox="0 0 31 32">
<path fill="#b1a598" style="fill: var(--color1, #b1a598)" opacity="0.8" d="M27.619 10.716c-1.286 1.595-2.466 3.523-2.655 3.856-0.054 0.096-0.147 0.326-0.253 0.608-0.475-0.827-1.084-1.531-1.839-2.077-1.078-0.779-2.363-1.179-3.786-1.247 0.393-0.51 0.758-1.040 0.948-1.461 0.49-1.079 2.319-5.554 3.32-7.443s3.969-0.196 5.673 0.999c1.705 1.195 1.686 2.467 1.47 2.798s-1.593 2.374-2.88 3.969z"></path>
<path fill="#b1a598" style="fill: var(--color1, #b1a598)" opacity="0.8" d="M20.109 16.399c-2.303-1.215-2.929-0.065-2.929-0.065-0.693-0.776-0.083-1.559-0.083-1.559s-0.158-0.375 0.187-0.712c0.211-0.205 0.9-0.957 1.517-1.758 1.423 0.068 2.708 0.469 3.786 1.247 0.755 0.546 1.364 1.25 1.839 2.077-0.263 0.696-0.613 1.72-0.695 1.896-0.116 0.247-0.386 0.572-0.611 0.597s-0.372 0.223-0.372 0.223c-0.338 0.549-1.229 0.502-1.229 0.502s0.893-1.234-1.41-2.449z"></path>
<path fill="#b1a598" style="fill: var(--color1, #b1a598)" opacity="0.8" d="M1.745 19.784c0.789-0.505 1.798-0.687 2.629-1.121 2.149-1.122-0.359-2.581-1.153-3.446-1.348-1.469-1.59-3.037-0.804-4.838 0.246-0.564 0.718-1.138 0.472-0.575-1.345 3.081 1.827 4.915 3.343 6.853 0.558 0.714 0.405 1.416-0.301 2.008-1.367 1.146-5.218 1.858-3.080 4.043 1.499 1.532 4.016 1.895 5.712 3.229 0.229 0.18 0.218 0.606-0.044 0.754-1.891 1.072-4.319 0.541-6.174 1.502 2.929 1.193 6.148 0.901 9.275 0.911-0.004-0.089 0.014-0.163 0.014-0.163 0.623-2.378 0.713-2.898 0.644-4.123s0.125-1.317 0.125-1.317c2.109-2.384 4.834-7.007 4.834-7.007 0.35-0.474 1.568-0.574 2.987 0.228 1.472 0.832 1.273 1.763 1.273 1.763l-3.336 7.439c-0.115 0.238-0.547 0.317-0.547 0.317-2.509 0.473-4.734 2.752-5.036 3.111s-0.48 0.195-0.48 0.195l3.453-6.11c0.222-0.029 0.462-0.197 0.619-0.465 0.227-0.388 0.194-0.83-0.076-0.988s-0.672 0.029-0.899 0.417c-0.171 0.292-0.194 0.615-0.080 0.824l-3.297 5.879h0.060c0.611 0.005-0.098 0.719-1.821 0.771-3.84 0.117-5.321-0.054-8.905-1.175-0.368-0.115-0.329-0.595-0.059-0.823 1.776-1.499 4.114-0.922 6.141-1.641-2.371-1.274-8.926-4.257-5.491-6.455z"></path>
</symbol>
<symbol id="icon-header-logo" viewBox="0 0 43 32">
<path fill="#e1dad2" style="fill: var(--color2, #e1dad2)" d="M-0.519 28.793l19.195-1.297 19.195 1.297v3.632h-38.391v-3.632z"></path>
<path fill="#886641" style="fill: var(--color3, #886641)" d="M28.868 19.812c-0.63-0.439-1.373-0.601-2.030-0.744-0.058-0.013-0.117-0.014-0.176-0.004s-0.114 0.032-0.164 0.064c-0.050 0.032-0.093 0.073-0.126 0.122s-0.057 0.103-0.070 0.161c-0.013 0.058-0.014 0.118-0.003 0.176s0.032 0.114 0.064 0.164c0.032 0.050 0.073 0.093 0.122 0.126s0.103 0.058 0.161 0.070c0.602 0.131 1.224 0.267 1.707 0.603 0.373 0.26 0.726 0.758 0.62 1.239-0.152 0.691-1.142 0.998-1.719 1.12-2.029 0.429-4.169 0.41-6.237 0.392-1.196-0.010-2.433-0.021-3.651 0.053-0.9 0.055-1.841 0.176-2.619 0.68-0.803 0.521-1.449 1.636-1.065 2.677 0.074 0.201 0.176 0.374 0.275 0.541 0.126 0.215 0.235 0.4 0.241 0.57 0.007 0.228-0.187 0.45-0.383 0.569-0.269 0.162-0.615 0.228-0.976 0.288-3.606 0.591-7.619 0.691-11.093 0.284 0.17-0.881 0.489-1.843 0.966-2.919 0.754-0.017 1.582-0.116 2.474-0.299 2.606-0.522 5.217-1.693 7.544-3.385 0.851-0.612 1.684-1.256 2.476-1.918 0.072-0.059 0.099-0.158 0.072-0.248-0.016-0.043-0.044-0.080-0.081-0.107s-0.081-0.043-0.126-0.046c-0.783-0.027-1.873-0.184-2.984-0.693 1.269 0.023 3.525-0.113 5.523-1.053 0.022-0.009 0.042-0.023 0.059-0.041 1.377-1.31 2.66-2.705 3.817-4.146 0.026-0.032 0.043-0.072 0.047-0.113s-0.002-0.083-0.020-0.121c-0.017-0.038-0.045-0.071-0.080-0.094s-0.076-0.036-0.118-0.037c-0.72-0.009-2.030-0.135-3.363-0.801 1.215-0.086 3.597-0.329 5.073-0.932 0.041-0.014 0.072-0.040 0.099-0.077 1.512-2.161 2.759-4.398 3.714-6.648 0.027-0.063 0.023-0.135-0.009-0.198-0.017-0.029-0.040-0.054-0.067-0.073s-0.058-0.033-0.091-0.040c-0.783-0.144-1.571-0.167-2.156-0.149 0.99-0.504 1.954-0.671 2.651-0.716 0.043-0.004 0.084-0.020 0.118-0.046s0.060-0.062 0.075-0.102c0.617-1.656 0.815-2.651 0.819-2.692 0.011-0.051 0.003-0.105-0.022-0.151s-0.065-0.082-0.114-0.101c-0.126-0.049-3.133-1.224-7.823 0.113-0.045 0.014-0.081 0.036-0.108 0.072-0.914 1.067-1.562 2.485-1.922 3.407-0.041-0.81 0.036-1.647 0.23-2.489 0.023-0.081-0.009-0.167-0.072-0.221s-0.153-0.068-0.23-0.036c-1.701 0.707-3.398 1.679-5.046 2.89-0.027 0.018-0.045 0.045-0.063 0.072-0.779 1.377-1.017 3.295-1.089 4.452-0.315-0.837-0.5-1.742-0.554-2.701-0.002-0.042-0.016-0.082-0.040-0.116s-0.057-0.061-0.095-0.077c-0.039-0.017-0.082-0.022-0.124-0.016s-0.082 0.024-0.114 0.052c-0.977 0.851-1.972 1.823-2.962 2.885-0.014 0.014-0.023 0.027-0.031 0.045-0.788 1.377-1.022 3.313-1.094 4.47-0.243-0.644-0.41-1.332-0.5-2.053-0.004-0.044-0.021-0.085-0.049-0.119s-0.066-0.058-0.108-0.070c-0.090-0.023-0.18 0.005-0.239 0.072-1.112 1.373-2.219 2.881-3.29 4.497-1.049 1.566-1.71 3.268-1.922 4.915-0.234 1.823 0.072 3.083 0.419 3.867 6.054-13.112 16.515-16.988 16.619-17.024 0.055-0.020 0.114-0.029 0.174-0.027s0.117 0.017 0.171 0.042c0.053 0.025 0.102 0.061 0.141 0.104s0.071 0.095 0.091 0.15c0.020 0.056 0.029 0.115 0.027 0.174s-0.017 0.117-0.042 0.171c-0.025 0.054-0.061 0.102-0.104 0.141s-0.095 0.071-0.15 0.091c-0.104 0.036-10.24 3.808-16.124 16.592-0.081 0.18-0.158 0.36-0.225 0.531l0.007 0.008c-0.543 1.259-0.877 2.376-1.021 3.407-0.016 0.118 0.015 0.238 0.087 0.333s0.179 0.158 0.297 0.174h0.003c1.572 0.208 3.263 0.312 4.987 0.312 2.289 0 4.635-0.182 6.831-0.542 0.433-0.071 0.89-0.161 1.297-0.406 0.521-0.316 0.835-0.84 0.817-1.368-0.013-0.401-0.2-0.718-0.365-0.998-0.083-0.14-0.16-0.271-0.206-0.396-0.215-0.581 0.193-1.274 0.71-1.609 0.634-0.411 1.46-0.492 2.185-0.537 1.186-0.072 2.407-0.062 3.588-0.051 2.116 0.018 4.305 0.037 6.43-0.412 1.381-0.292 2.215-0.917 2.411-1.808 0.196-0.889-0.353-1.731-0.985-2.171z"></path>
<path fill="#e1dad2" style="fill: var(--color2, #e1dad2)" d="M13.489 22.308h18.158v10.895h-18.158v-10.895z"></path>
<path fill="#e1dad2" style="fill: var(--color2, #e1dad2)" d="M24.383 17.12h18.158v10.895h-18.158v-10.895z"></path>
<path fill="none" stroke="#282828" style="stroke: var(--color4, #282828)" stroke-linejoin="miter" stroke-linecap="round" stroke-miterlimit="4" stroke-width="1.3913" d="M1.556 30.609c0.325 0 5.181-0.371 9.307-0.74 1.551-0.139 2.448-2.017 3.144-3.41v0 0c0.849-1.698 3.119-2.075 5.018-2.075h8.81c0.959 0 1.736-0.777 1.736-1.736v0c0-0.681-0.398-1.298-1.017-1.58l-1.836-0.834"></path>
</symbol>
<symbol id="icon-footer-logo" viewBox="0 0 43 32">
<path fill="#e1dad2" style="fill: var(--color2, #e1dad2)" d="M-0.519 28.793l19.195-1.297 19.195 1.297v3.632h-38.391v-3.632z"></path>
<path fill="#886641" style="fill: var(--color3, #886641)" d="M28.868 19.812c-0.63-0.439-1.373-0.601-2.030-0.744-0.058-0.013-0.117-0.014-0.176-0.004s-0.114 0.032-0.164 0.064c-0.050 0.032-0.093 0.073-0.126 0.122s-0.057 0.103-0.070 0.161c-0.013 0.058-0.014 0.118-0.003 0.176s0.032 0.114 0.064 0.164c0.032 0.050 0.073 0.093 0.122 0.126s0.103 0.058 0.161 0.070c0.602 0.131 1.224 0.267 1.707 0.603 0.373 0.26 0.726 0.758 0.62 1.239-0.152 0.691-1.142 0.998-1.719 1.12-2.029 0.429-4.169 0.41-6.237 0.392-1.196-0.010-2.433-0.021-3.651 0.053-0.9 0.055-1.841 0.176-2.619 0.68-0.803 0.521-1.449 1.636-1.065 2.677 0.074 0.201 0.176 0.374 0.275 0.541 0.126 0.215 0.235 0.4 0.241 0.57 0.007 0.228-0.187 0.45-0.383 0.569-0.269 0.162-0.615 0.228-0.976 0.288-3.606 0.591-7.619 0.691-11.093 0.284 0.17-0.881 0.489-1.843 0.966-2.919 0.754-0.017 1.582-0.116 2.474-0.299 2.606-0.522 5.217-1.693 7.544-3.385 0.851-0.612 1.684-1.256 2.476-1.918 0.072-0.059 0.099-0.158 0.072-0.248-0.016-0.043-0.044-0.080-0.081-0.107s-0.081-0.043-0.126-0.046c-0.783-0.027-1.873-0.184-2.984-0.693 1.269 0.023 3.525-0.113 5.523-1.053 0.022-0.009 0.042-0.023 0.059-0.041 1.377-1.31 2.66-2.705 3.817-4.146 0.026-0.032 0.043-0.072 0.047-0.113s-0.002-0.083-0.020-0.121c-0.017-0.038-0.045-0.071-0.080-0.094s-0.076-0.036-0.118-0.037c-0.72-0.009-2.030-0.135-3.363-0.801 1.215-0.086 3.597-0.329 5.073-0.932 0.041-0.014 0.072-0.040 0.099-0.077 1.512-2.161 2.759-4.398 3.714-6.648 0.027-0.063 0.023-0.135-0.009-0.198-0.017-0.029-0.040-0.054-0.067-0.073s-0.058-0.033-0.091-0.040c-0.783-0.144-1.571-0.167-2.156-0.149 0.99-0.504 1.954-0.671 2.651-0.716 0.043-0.004 0.084-0.020 0.118-0.046s0.060-0.062 0.075-0.102c0.617-1.656 0.815-2.651 0.819-2.692 0.011-0.051 0.003-0.105-0.022-0.151s-0.065-0.082-0.114-0.101c-0.126-0.049-3.133-1.224-7.823 0.113-0.045 0.014-0.081 0.036-0.108 0.072-0.914 1.067-1.562 2.485-1.922 3.407-0.041-0.81 0.036-1.647 0.23-2.489 0.023-0.081-0.009-0.167-0.072-0.221s-0.153-0.068-0.23-0.036c-1.701 0.707-3.398 1.679-5.046 2.89-0.027 0.018-0.045 0.045-0.063 0.072-0.779 1.377-1.017 3.295-1.089 4.452-0.315-0.837-0.5-1.742-0.554-2.701-0.002-0.042-0.016-0.082-0.040-0.116s-0.057-0.061-0.095-0.077c-0.039-0.017-0.082-0.022-0.124-0.016s-0.082 0.024-0.114 0.052c-0.977 0.851-1.972 1.823-2.962 2.885-0.014 0.014-0.023 0.027-0.031 0.045-0.788 1.377-1.022 3.313-1.094 4.47-0.243-0.644-0.41-1.332-0.5-2.053-0.004-0.044-0.021-0.085-0.049-0.119s-0.066-0.058-0.108-0.070c-0.090-0.023-0.18 0.005-0.239 0.072-1.112 1.373-2.219 2.881-3.29 4.497-1.049 1.566-1.71 3.268-1.922 4.915-0.234 1.823 0.072 3.083 0.419 3.867 6.054-13.112 16.515-16.988 16.619-17.024 0.055-0.020 0.114-0.029 0.174-0.027s0.117 0.017 0.171 0.042c0.053 0.025 0.102 0.061 0.141 0.104s0.071 0.095 0.091 0.15c0.020 0.056 0.029 0.115 0.027 0.174s-0.017 0.117-0.042 0.171c-0.025 0.054-0.061 0.102-0.104 0.141s-0.095 0.071-0.15 0.091c-0.104 0.036-10.24 3.808-16.124 16.592-0.081 0.18-0.158 0.36-0.225 0.531l0.007 0.008c-0.543 1.259-0.877 2.376-1.021 3.407-0.016 0.118 0.015 0.238 0.087 0.333s0.179 0.158 0.297 0.174h0.003c1.572 0.208 3.263 0.312 4.987 0.312 2.289 0 4.635-0.182 6.831-0.542 0.433-0.071 0.89-0.161 1.297-0.406 0.521-0.316 0.835-0.84 0.817-1.368-0.013-0.401-0.2-0.718-0.365-0.998-0.083-0.14-0.16-0.271-0.206-0.396-0.215-0.581 0.193-1.274 0.71-1.609 0.634-0.411 1.46-0.492 2.185-0.537 1.186-0.072 2.407-0.062 3.588-0.051 2.116 0.018 4.305 0.037 6.43-0.412 1.381-0.292 2.215-0.917 2.411-1.808 0.196-0.889-0.353-1.731-0.985-2.171z"></path>
<path fill="#e1dad2" style="fill: var(--color2, #e1dad2)" d="M13.489 22.308h18.158v10.895h-18.158v-10.895z"></path>
<path fill="#e1dad2" style="fill: var(--color2, #e1dad2)" d="M24.383 17.12h18.158v10.895h-18.158v-10.895z"></path>
<path fill="none" stroke="#282828" style="stroke: var(--color4, #282828)" stroke-linejoin="miter" stroke-linecap="round" stroke-miterlimit="4" stroke-width="1.3913" d="M1.556 30.609c0.325 0 5.181-0.371 9.307-0.74 1.551-0.139 2.448-2.017 3.144-3.41v0 0c0.849-1.698 3.119-2.075 5.018-2.075h8.81c0.959 0 1.736-0.777 1.736-1.736v0c0-0.681-0.398-1.298-1.017-1.58l-1.836-0.834"></path>
</symbol>
</defs>
</svg>
